<svg width="1600" height="420" viewBox="0 0 1600 420" fill="none" xmlns="http://www.w3.org/2000/svg">
  <rect width="1600" height="420" fill="#0D1117"/>
  <g opacity="0.16" stroke="#58A6FF">
    <path d="M0 40H1600"/><path d="M0 80H1600"/><path d="M0 120H1600"/><path d="M0 160H1600"/>
    <path d="M0 200H1600"/><path d="M0 240H1600"/><path d="M0 280H1600"/><path d="M0 320H1600"/><path d="M0 360H1600"/>
    <path d="M100 0V420"/><path d="M300 0V420"/><path d="M500 0V420"/><path d="M700 0V420"/>
    <path d="M900 0V420"/><path d="M1100 0V420"/><path d="M1300 0V420"/><path d="M1500 0V420"/>
  </g>
  <g font-family="monospace" font-size="16" fill="#7C3AED" opacity="0.45">
    <text x="70" y="60">01010110 01101001 01110011 01101001 01101111 01101110</text>
    <text x="70" y="100">const focus = "backend + fullstack";</text>
    <text x="70" y="140">if (learn) build(); innovate();</text>
    <text x="70" y="180">git commit -m "improve architecture"</text>
  </g>
  <g fill="#3FB950" opacity="0.7">
    <circle cx="1420" cy="80" r="2"/><circle cx="1360" cy="120" r="2"/><circle cx="1480" cy="160" r="2"/>
    <circle cx="1240" cy="60" r="2"/><circle cx="1180" cy="200" r="2"/><circle cx="1310" cy="240" r="2"/>
  </g>
</svg>
